PathFileType	4	(X/Y/Z)	C:\Users\86182\Documents\cortex\Trimmed_M1_H5.trc
DataRate	CameraRate	NumFrames	NumMarkers	Units	OrigDataRate	OrigDataStartFrame	OrigNumFrames
100.00	100.00	       70	2	mm	100.00	721	       901
Frame#	Time	gripper			box			
		X1	Y1	Z1	X2	Y2	Z2	

721	7.200	219.54707	203.03046	287.37567	222.48187	202.68240	142.63046	
722	7.210	219.54694	203.02975	287.37482	222.48512	202.68199	142.62993	
723	7.220	219.55023	203.02855	287.37402	222.48796	202.68163	142.62946	
724	7.230	219.55597	203.02718	287.37347	222.48941	202.68144	142.62923	
725	7.240	219.56235	203.02609	287.37332	222.48892	202.68150	142.62932	
726	7.250	219.56815	203.02570	287.37335	222.48689	202.68176	142.62964	
727	7.260	219.57292	203.02606	287.37338	222.48428	202.68210	142.63005	
728	7.270	219.57671	203.02701	287.37317	222.48189	202.68239	142.63045	
729	7.280	219.57944	203.02826	287.37256	222.48003	202.68263	142.63075	
730	7.290	219.58075	203.02966	287.37177	222.47873	202.68280	142.63095	
731	7.300	219.58023	203.03104	287.37094	222.47789	202.68289	142.63109	
732	7.310	219.57780	203.03226	287.37048	222.47751	202.68295	142.63115	
733	7.320	219.57344	203.03319	287.37061	222.47754	202.68294	142.63115	
734	7.330	219.56709	203.03384	287.37149	222.47795	202.68289	142.63107	
735	7.340	219.55946	203.03419	287.37311	222.47868	202.68280	142.63095	
736	7.350	219.55228	203.03424	287.37506	222.47980	202.68266	142.63075	
737	7.360	219.54747	203.03394	287.37689	222.48137	202.68246	142.63051	
738	7.370	219.54637	203.03328	287.37820	222.48320	202.68224	142.63020	
739	7.380	219.54938	203.03230	287.37875	222.48491	202.68202	142.62994	
740	7.390	219.55569	203.03114	287.37860	222.48624	202.68185	142.62973	
741	7.400	219.56343	203.03006	287.37790	222.48715	202.68173	142.62958	
742	7.410	219.57065	203.02933	287.37689	222.48773	202.68166	142.62949	
743	7.420	219.57616	203.02910	287.37567	222.48796	202.68163	142.62946	
744	7.430	219.57976	203.02939	287.37430	222.48779	202.68166	142.62947	
745	7.440	219.58189	203.03008	287.37274	222.48732	202.68172	142.62955	
746	7.450	219.58302	203.03101	287.37119	222.48653	202.68181	142.62967	
747	7.460	219.58339	203.03192	287.36981	222.48520	202.68198	142.62990	
748	7.470	219.58337	203.03255	287.36896	222.48323	202.68222	142.63020	
749	7.480	219.58344	203.03270	287.36871	222.48099	202.68251	142.63057	
750	7.490	219.58383	203.03229	287.36914	222.47890	202.68277	142.63092	
751	7.500	219.58452	203.03142	287.37006	222.47722	202.68298	142.63118	
752	7.510	219.58521	203.03030	287.37125	222.47604	202.68314	142.63138	
753	7.520	219.58530	203.02919	287.37250	222.47533	202.68323	142.63148	
754	7.530	219.58380	203.02838	287.37369	222.47495	202.68327	142.63155	
755	7.540	219.57968	203.02812	287.37476	222.47482	202.68329	142.63158	
756	7.550	219.57224	203.02858	287.37567	222.47484	202.68329	142.63158	
757	7.560	219.56146	203.02983	287.37637	222.47491	202.68327	142.63156	
758	7.570	219.54842	203.03174	287.37686	222.47501	202.68326	142.63153	
759	7.580	219.53511	203.03397	287.37695	222.47508	202.68326	142.63153	
760	7.590	219.52383	203.03607	287.37662	222.47510	202.68324	142.63153	
761	7.600	219.51669	203.03761	287.37589	222.47507	202.68326	142.63155	
762	7.610	219.51517	203.03821	287.37500	222.47498	202.68326	142.63155	
763	7.620	219.51924	203.03769	287.37427	222.47484	202.68327	142.63158	
764	7.630	219.52718	203.03627	287.37396	222.47469	202.68330	142.63161	
765	7.640	219.53716	203.03441	287.37408	222.47458	202.68332	142.63162	
766	7.650	219.54779	203.03250	287.37451	222.47458	202.68332	142.63162	
767	7.660	219.55769	203.03085	287.37506	222.47484	202.68329	142.63158	
768	7.670	219.56554	203.02962	287.37561	222.47546	202.68320	142.63147	
769	7.680	219.57021	203.02892	287.37616	222.47662	202.68306	142.63127	
770	7.690	219.57126	203.02873	287.37659	222.47849	202.68283	142.63098	
771	7.700	219.56911	203.02901	287.37683	222.48105	202.68250	142.63055	
772	7.710	219.56473	203.02959	287.37680	222.48425	202.68210	142.63004	
773	7.720	219.55948	203.03035	287.37640	222.48782	202.68166	142.62946	
774	7.730	219.55515	203.03116	287.37540	222.49129	202.68121	142.62889	
775	7.740	219.55292	203.03200	287.37381	222.49370	202.68091	142.62851	
776	7.750	219.55249	203.03308	287.37183	222.49405	202.68086	142.62845	
777	7.760	219.55273	203.03450	287.36978	222.49197	202.68112	142.62880	
778	7.770	219.55270	203.03609	287.36804	222.48831	202.68159	142.62939	
779	7.780	219.55183	203.03740	287.36707	222.48428	202.68210	142.63004	
780	7.790	219.55008	203.03809	287.36707	222.48073	202.68254	142.63063	
781	7.800	219.54794	203.03793	287.36819	222.47801	202.68289	142.63107	
782	7.810	219.54678	203.03690	287.37006	222.47617	202.68312	142.63136	
783	7.820	219.54823	203.03511	287.37198	222.47507	202.68326	142.63155	
784	7.830	219.55266	203.03287	287.37354	222.47453	202.68332	142.63162	
785	7.840	219.55870	203.03056	287.37451	222.47438	202.68333	142.63165	
786	7.850	219.56465	203.02856	287.37500	222.47446	202.68333	142.63164	
787	7.860	219.56940	203.02711	287.37509	222.47462	202.68332	142.63161	
788	7.870	219.57248	203.02643	287.37497	222.47482	202.68329	142.63156	
789	7.880	219.57353	203.02657	287.37482	222.47501	202.68326	142.63153	
790	7.890	219.57195	203.02747	287.37482	222.47513	202.68324	142.63152	
